<svg xmlns="http://www.w3.org/2000/svg" width="48" height="48" viewBox="0 0 256 256" fill="none" id="my-svg">
  <defs>
    <linearGradient id="gradient1">
      <stop class="stop1" offset="0%" stop-color="#8f66ff"></stop>
      <stop class="stop2" offset="100%" stop-color="#3d12ff"></stop>
    </linearGradient>
  </defs>
  <rect id="backgr" width="256" height="256" fill="none" rx="60"></rect>
  <path d="M32 74.6667C32 51.1025 51.1025 32 74.6667 32H181.333C204.897 32 224 51.1025 224 74.6667V181.333C224 204.897 204.897 224 181.333 224H74.6667C51.1025 224 32 204.897 32 181.333V74.6667Z M192 74.6667C192 80.5577 187.224 85.3333 181.333 85.3333C175.442 85.3333 170.667 80.5577 170.667 74.6667C170.667 68.7756 175.442 64 181.333 64C187.224 64 192 68.7756 192 74.6667Z M160 128C160 145.673 145.673 160 128 160C110.327 160 96 145.673 96 128C96 110.327 110.327 96 128 96C145.673 96 160 110.327 160 128Z" stroke="#fcfcfc" stroke-width="14" stroke-linecap="round" stroke-linejoin="round" id="my-path" transform="translate(0,0) scale(1)"></path>
</svg>